<svg id="Layer_1" data-name="Layer 1" xmlns="http://www.w3.org/2000/svg" viewBox="0 0 194.15 111.78"><defs><style>.cls-1{fill:#fff;}.cls-2{fill:#f8ae22;}.cls-3{fill:#23aae2;}.cls-4{fill:#8cbf47;}.cls-5{fill:#c11a80;}.cls-6{fill:#16559f;}</style></defs><title>logo-footer</title><g id="logo_ctq" data-name="logo ctq"><path class="cls-1" d="M25.84.73a22.13,22.13,0,0,0-12.67.5A16.68,16.68,0,0,0,2.75,16.69c-.89,11,4.67,17,9.85,19.11a23.39,23.39,0,0,0,13.24.5c-1.22-.42-2.38-3.7-1.33-5.19C12.95,33.28,9.7,26,9.68,19S12.8,3.42,24.5,6.2C24.06,5.31,23.84,1.83,25.84.73Z"/><polygon class="cls-1" points="35.45 0.65 35.45 6.08 45.92 6.08 45.92 36.44 52.77 36.44 52.77 6.28 63.07 6.28 63.07 0.65 35.45 0.65"/><path class="cls-1" d="M100.44,22.77a4.7,4.7,0,0,1-2.55-5.14c-.88-1-3.7-3.22-1.08-7.37a4.4,4.4,0,0,1-.58-4.89C96,4.72,91.68-.25,83.18,0,72.3,0,65.64,6.86,65.65,18.59c-.16,10.58,6,18.5,17.54,18.43a12.48,12.48,0,0,0,1.9-.08c1.38,2.57,6.4,10,8.81,11.26,0,0,3.47-2.91,4.4-3.71a48.68,48.68,0,0,1-7-9.09C95.19,33.85,99.51,29.36,100.44,22.77ZM82.85,31.55c-7.31,0-10.14-6.21-10.14-13S75.65,5.53,82.88,5.53c9.47,0,10.78,7.87,10.78,13.06S92.33,31.55,82.85,31.55Z"/></g><g id="logo_place_éphémère" data-name="logo place éphémère"><path class="cls-2" d="M12.4,56.68a12.36,12.36,0,1,0,0,24.72H24.8V69A12.38,12.38,0,0,0,12.4,56.68Zm0,17.66A5.3,5.3,0,1,1,17.71,69,5.31,5.31,0,0,1,12.4,74.34Z"/><path class="cls-3" d="M30.51,69V81.4h12.4A12.36,12.36,0,1,0,30.51,69Zm7.08,0a5.31,5.31,0,1,1,5.31,5.3A5.31,5.31,0,0,1,37.6,69Z"/><path class="cls-4" d="M24.8,99.35V87H12.4A12.36,12.36,0,1,0,24.8,99.35Zm-7.08,0a5.31,5.31,0,1,1-5.31-5.3A5.31,5.31,0,0,1,17.71,99.35Z"/><path class="cls-5" d="M42.91,111.71a12.36,12.36,0,1,0,0-24.72H30.51V99.35A12.38,12.38,0,0,0,42.91,111.71Zm0-17.66a5.3,5.3,0,1,1-5.31,5.3A5.31,5.31,0,0,1,42.91,94.05Z"/><path class="cls-6" d="M83.16,63.74c-8.77,0-9.6,0-9.6,0V81.42H78v-6h5.12a5.67,5.67,0,0,0,5.4-5.9C88.57,66.62,86.13,63.74,83.16,63.74Zm-.9,7.72H78.07V67.61s1.63,0,4,0S84.44,71.47,82.26,71.47Z"/><rect class="cls-6" x="90.39" y="63.74" width="4.16" height="17.68"/><path class="cls-6" d="M104,68.28c-4.19,0-5.42,1.17-6.56,2l1.44,2.55s2-1.56,3.75-1.37A3.12,3.12,0,0,1,105,72.58v2.27a4.34,4.34,0,0,0-3.65-1.44c-2.62,0-4.69,1.59-4.66,3.92a4.15,4.15,0,0,0,4.08,4.37A6.61,6.61,0,0,0,105,80.3v1.12h4.13V72.58S109.12,68.53,104,68.28Zm1.09,9.92a3.55,3.55,0,0,1-2.16.84c-1.1,0-2.2-.54-2.16-1.5s1-1.49,2.1-1.52a3.28,3.28,0,0,1,2.23.85Z"/><path class="cls-6" d="M123.55,70.57l-2.6,2.7a2.76,2.76,0,0,0-2.52-1.39,3.16,3.16,0,0,0-.32,6.25A2.83,2.83,0,0,0,121,76.76l2.59,2.55s-1.38,2.39-5.41,2.39c-3.39,0-7-2.74-6.95-6.72s2.72-6.56,6.82-6.72A6.24,6.24,0,0,1,123.55,70.57Z"/><path class="cls-6" d="M137.92,76.25s.64-8-6.43-8c-6.5,0-6.95,5.46-6.95,7.19a6.58,6.58,0,0,0,6.68,6.25c3.43,0,5.48-1.34,5.67-1.66l-1.7-2.55a6.48,6.48,0,0,1-3.36,1.05c-1.79,0-3.1-1.5-3-2.3Zm-9.25-2.65a2.65,2.65,0,0,1,2.62-2.14c2.62,0,2.62,2.14,2.62,2.14Z"/><path class="cls-6" d="M86,101.72s.64-8-6.43-8c-6.5,0-6.95,5.46-6.95,7.19a6.58,6.58,0,0,0,6.68,6.25c3.43,0,5.48-1.34,5.67-1.66L83.28,103A6.48,6.48,0,0,1,79.92,104c-1.79,0-3.1-1.5-3-2.3Zm-9.25-2.65a2.65,2.65,0,0,1,2.62-2.14C82,96.93,82,99.07,82,99.07Z"/><polygon class="cls-6" points="77.8 92.08 80.95 92.08 84.93 88.33 81.06 88.33 77.8 92.08"/><path class="cls-6" d="M132,101.72s.64-8-6.43-8c-6.5,0-6.95,5.46-6.95,7.19a6.58,6.58,0,0,0,6.68,6.25c3.43,0,5.48-1.34,5.67-1.66l-1.7-2.55a6.48,6.48,0,0,1-3.36,1.05c-1.79,0-3.1-1.5-3-2.3Zm-9.25-2.65a2.65,2.65,0,0,1,2.62-2.14c2.62,0,2.62,2.14,2.62,2.14Z"/><polygon class="cls-6" points="123.77 92.08 126.93 92.08 130.9 88.33 127.03 88.33 123.77 92.08"/><path class="cls-6" d="M169.59,101.76s.64-8-6.43-8c-6.5,0-6.95,5.46-6.95,7.19a6.58,6.58,0,0,0,6.68,6.25c3.43,0,5.48-1.34,5.67-1.66l-1.7-2.55a6.48,6.48,0,0,1-3.36,1.05c-1.79,0-3.1-1.5-3-2.3Zm-9.25-2.65A2.65,2.65,0,0,1,163,97c2.62,0,2.62,2.14,2.62,2.14Z"/><polygon class="cls-6" points="164.59 92.12 161.43 92.12 157.46 88.37 161.33 88.37 164.59 92.12"/><path class="cls-6" d="M194.14,101.76s.64-8-6.43-8c-6.5,0-6.95,5.46-6.95,7.19a6.58,6.58,0,0,0,6.68,6.25c3.43,0,5.48-1.34,5.67-1.66l-1.7-2.55a6.48,6.48,0,0,1-3.36,1.05c-1.79,0-3.1-1.5-3-2.3Zm-9.25-2.65A2.65,2.65,0,0,1,187.51,97c2.62,0,2.62,2.14,2.62,2.14Z"/><path class="cls-6" d="M96.15,93.74a4.76,4.76,0,0,0-4.05,1.87l0-1.62L88,94v17.74H92v-6.34a5.1,5.1,0,0,0,3.63,1.74c2.09-.08,5.76-1.14,5.76-6.21S99.1,93.69,96.15,93.74Zm-1.6,9.91a3.45,3.45,0,0,1-2.45-1.19v-4a4,4,0,0,1,2.45-1.19c1.39,0,2.75.94,2.71,3.14S96,103.61,94.55,103.65Z"/><path class="cls-6" d="M103.58,89.14h4.14v6.4a6.42,6.42,0,0,1,4.48-1.8c2.82,0,4.14,1.93,4.23,3.2s0,9.95,0,9.95h-4.14V99.07a1.86,1.86,0,0,0-2.1-1.68,2.86,2.86,0,0,0-2.47,1.28v8.21h-4.14Z"/><path class="cls-6" d="M133.88,94v12.89h4.06V98.72a2.91,2.91,0,0,1,2.3-1.32c1.49,0,1.62,1.11,1.62,1.11v8.38H146V98.63a3.65,3.65,0,0,1,2.39-1.27,1.86,1.86,0,0,1,1.61,1v8.51h4.18V97.25a3.48,3.48,0,0,0-3.8-3.47C146.86,93.78,146,96,146,96a3.44,3.44,0,0,0-3.51-2.23,5.62,5.62,0,0,0-4.52,1.85V94Z"/><path class="cls-6" d="M171.57,94V106.9h4.07V98.78s1.18-1.49,4-1.15V93.77s-1.57-.33-4,1.9V94Z"/></g></svg>