<?xml version="1.0" encoding="UTF-8"?> <!-- Generator: Adobe Illustrator 21.0.0, SVG Export Plug-In . SVG Version: 6.00 Build 0) --> <svg xmlns="http://www.w3.org/2000/svg" xmlns:xlink="http://www.w3.org/1999/xlink" id="Layer_1" x="0px" y="0px" viewBox="0 0 215.9 416.9" style="enable-background:new 0 0 215.9 416.9;" xml:space="preserve"> <style type="text/css"> .st0{fill:#FFFFFF;} .st1{fill:#35A8E0;} .st2{fill:none;stroke:#35A8E0;stroke-width:12.1681;stroke-miterlimit:10;} .st3{fill-rule:evenodd;clip-rule:evenodd;fill:#FFFFFF;stroke:#35A8E0;stroke-width:12.1681;stroke-miterlimit:10;} .st4{fill:#416CB5;} </style> <g id="piment_fb_2_"> <g> <g> <g> <path class="st0" d="M113.2,410.8c-53.3,0-96.6-43.9-96.6-97.9c0-54,43.3-97.9,96.6-97.9c53.3,0,96.6,43.9,96.6,97.9 C209.8,366.9,166.5,410.8,113.2,410.8z"></path> <path class="st1" d="M113.2,221.1c50,0,90.5,41.1,90.5,91.8c0,50.7-40.5,91.8-90.5,91.8s-90.5-41.1-90.5-91.8 C22.7,262.2,63.3,221.1,113.2,221.1 M113.2,208.9c-56.6,0-102.7,46.6-102.7,104s46.1,104,102.7,104s102.7-46.6,102.7-104 S169.8,208.9,113.2,208.9L113.2,208.9z"></path> </g> <g> <path class="st0" d="M106.7,227.2c-38.8,0-70.4-32-70.4-71.3s31.6-71.3,70.4-71.3s70.4,32,70.4,71.3S145.5,227.2,106.7,227.2z"></path> <path class="st1" d="M106.7,90.6c35.5,0,64.3,29.2,64.3,65.3s-28.8,65.3-64.3,65.3s-64.3-29.2-64.3-65.3S71.1,90.6,106.7,90.6 M106.7,78.4c-42.2,0-76.5,34.7-76.5,77.4s34.3,77.4,76.5,77.4s76.5-34.7,76.5-77.4S148.9,78.4,106.7,78.4L106.7,78.4z"></path> </g> <g> <line class="st2" x1="130.2" y1="62.7" x2="13.2" y2="122.8"></line> </g> <polygon class="st3" points="103.7,72.6 40.3,105.2 8.1,40.8 71.6,8.2 "></polygon> </g> <path class="st4" d="M131,313l-4.1-13.7l-12.4,3.7l-3.7-12.5c-0.9-3.3,9.2-6.3,13.2-7.6c-0.6-2-3.5-12.4-3.5-12.4 c-21.6,3.6-26.8,12-24.6,23.1l4,13.8l-12.5,3.7l4.1,13.7l12.5-3.7l10.1,34.5l14.5-4.4l-10.1-34.4L131,313z"></path> </g> </g> </svg> 