<?xml version="1.0" encoding="UTF-8"?> <svg xmlns="http://www.w3.org/2000/svg" viewBox="0 0 170.5 170.5"><defs><style>.cls-1{fill:none;stroke:#000;stroke-miterlimit:10;stroke-width:6px;}</style></defs><title>calendar</title><g id="Calque_2" data-name="Calque 2"><g id="Accueil_Desktop" data-name="Accueil Desktop"><path d="M115.09,52.27H107.3V43.4a2.08,2.08,0,0,0-2.08-2.07H98.39a2.08,2.08,0,0,0-2.08,2.07v8.87h-22V43.4a2.08,2.08,0,0,0-2.08-2.07H65.4a2.08,2.08,0,0,0-2.08,2.07v8.87H55.49a8.67,8.67,0,0,0-8.65,8.65v59.6a8.67,8.67,0,0,0,8.65,8.65h59.6a8.67,8.67,0,0,0,8.65-8.65V60.92A8.67,8.67,0,0,0,115.09,52.27Zm.41,68.7H55V68.79h60.5Z"></path><rect x="63.32" y="79.78" width="10.99" height="10.99" rx="3.09"></rect><rect x="79.8" y="79.76" width="10.99" height="10.99" rx="3.09"></rect><rect x="96.28" y="79.78" width="10.99" height="10.99" rx="3.09"></rect><rect x="63.32" y="96.26" width="10.99" height="10.99" rx="3.09"></rect><rect x="79.8" y="96.26" width="10.99" height="10.99" rx="3.09"></rect><rect x="96.28" y="96.26" width="10.99" height="10.99" rx="3.09"></rect><circle class="cls-1" cx="85.25" cy="85.25" r="82.25"></circle></g></g></svg> 