<?xml version="1.0" encoding="UTF-8"?> <!-- Generator: Adobe Illustrator 21.0.0, SVG Export Plug-In . SVG Version: 6.00 Build 0) --> <svg xmlns="http://www.w3.org/2000/svg" xmlns:xlink="http://www.w3.org/1999/xlink" id="Layer_1" x="0px" y="0px" viewBox="0 0 256 246" style="enable-background:new 0 0 256 246;" xml:space="preserve"> <style type="text/css"> .st0{fill:#FFFFFF;} .st1{fill:#914C1C;} .st2{fill:#416CB5;} </style> <g> <g> <path class="st0" d="M90.7,236.1c-8.3,0-17.2-2.1-26.5-6.2C44.5,221.2,29,205.3,19.4,184c-8.8-19.4-11.9-42-8.9-63.4 c3.4-23.6,15.4-42.9,33-52.9c7.8-4.5,16.7-6.8,25.7-6.8c8.9,0,17.5,2.4,24.8,6.9c0.9-1,1.9-1.8,2.9-2.7 c-1.6-7.6-6.3-14.1-12.6-17.1c-2.4-1.2-5.2-1.8-8-1.8c-4.6,0-9,1.6-12.3,4.5l-1.5,2.3l-3.3,0c-1.7,0-2.6-0.2-10.1-4.6 c-1.2-0.7-6.5-3.8-7.4-4.5c-1.8-1.3-2.7-3.5-2.5-5.7c0.2-1.9,0.5-4.1,11.9-13.2c3.2-2.5,11.3-8.8,17.5-11.5 c7-3.1,14.5-4.6,22.3-4.6c12.8,0,25.5,4.4,35.5,12.4c9.4,7.5,16.1,18,19.2,29.8c8-5.3,17.9-8.3,28.1-8.3c2.8,0,5.7,0.2,8.4,0.7 c21,3.5,40.9,18.1,53.3,39c11.4,19.3,15.1,41.7,10.5,63.2c-4.8,22.3-18.1,42.1-36.3,54.2c-10.5,7-22.6,10.8-34.2,10.8c0,0,0,0,0,0 c-4.9,0-9.7-0.7-14.2-2c-5.8,8.9-15.7,14.3-26.6,14.3c-4.6,0-9.1-1-13.2-2.9c-4.3,7.3-11.8,12.8-20.9,14.9 C97.4,235.7,94.1,236.1,90.7,236.1z"></path> <path class="st1" d="M91,14.9c11.3,0,22.6,3.8,31.7,11c11.4,9,17.9,22.7,18.6,36.8c7.8-9.1,20.2-14,32.5-14c2.5,0,5,0.2,7.4,0.6 c20.7,3.5,38.5,18.4,49.1,36.1c10.5,17.7,14.1,38.8,9.8,58.8c-4.4,20.2-16.5,38.9-33.8,50.5c-9.2,6.1-20.1,9.8-30.8,9.8 c-5.9,0-11.7-1.1-17.1-3.5c-4.2,10.1-13.9,15.8-23.7,15.8c-5.7,0-11.4-1.9-16.1-5.8c-2.2,9.3-10.3,15.8-19.4,17.9 c-2.8,0.6-5.6,0.9-8.4,0.9c-8.3,0-16.7-2.4-24.1-5.7c-38.7-17.1-55.9-62.8-50.1-102.8c2.8-19.4,12.6-38.5,30-48.5 c6.9-4,14.8-6,22.6-6c9.3,0,18.5,2.9,25.9,9.1c2.2-3.4,5.1-6.2,8.3-8.1c0,0,0,0,0-0.1c-0.9-10.5-6.8-20.7-16.5-25.3 c-3.3-1.6-7-2.4-10.6-2.4c-6.3,0-12.5,2.3-17.1,6.7c0,0.1,0,0.1-0.1,0.1c-1,0-13.2-7.4-13.8-7.9C44.3,38.1,61.8,23.1,71.2,19 C77.5,16.3,84.2,14.9,91,14.9 M91,2.7c-8.6,0-16.9,1.7-24.7,5.1c-6.6,2.9-14.7,9-18.9,12.3C36,29.3,33.8,32.9,33.3,37.4 c-0.5,4.4,1.4,8.7,4.9,11.3c1.3,1,6.9,4.2,8,4.9c2.7,1.6,4.8,2.8,6.5,3.6c-4.2,1.3-8.2,3-12,5.2c-19.2,11-32.4,31.9-36,57.4 c-3.3,22.6,0.1,46.3,9.3,66.8c10.3,22.7,26.8,39.6,47.9,48.9c10.1,4.5,19.9,6.7,29,6.7c3.8,0,7.6-0.4,11.1-1.2 c8.9-2,16.5-6.9,21.8-13.4c3.5,1.1,7.2,1.6,11,1.6c11.5,0,22-5.1,29.1-13.5c3.8,0.8,7.7,1.2,11.8,1.2c12.8,0,26.2-4.2,37.6-11.8 c19.5-13,33.7-34.2,38.9-58c5-23,1-47.1-11.2-67.6c-13.3-22.5-34.8-38.1-57.5-41.9c-3.1-0.5-6.3-0.8-9.4-0.8 c-8.7,0-17.1,1.9-24.6,5.4c-3.9-10.1-10.4-19-18.9-25.7C119.1,7.6,105.2,2.7,91,2.7L91,2.7z M68.7,54.7c2.1-1.6,4.8-2.5,7.7-2.5 c1.9,0,3.7,0.4,5.4,1.2c2,1,3.8,2.4,5.3,4.3c-5.6-2-11.7-3-17.8-3C69,54.7,68.9,54.7,68.7,54.7L68.7,54.7z"></path> </g> <path class="st2" d="M143.2,133.4l-4.1-13.7l-12.4,3.7l-3.7-12.5c-0.9-3.3,9.2-6.3,13.2-7.6c-0.6-2-3.5-12.4-3.5-12.4 c-21.6,3.6-26.8,12-24.6,23.1l4,13.8l-12.5,3.7l4.1,13.7l12.5-3.7l10.1,34.5l14.5-4.4l-10.1-34.4L143.2,133.4z"></path> </g> </svg> 