<?xml version="1.0" encoding="UTF-8"?> <!-- Generator: Adobe Illustrator 21.0.0, SVG Export Plug-In . SVG Version: 6.00 Build 0) --> <svg xmlns="http://www.w3.org/2000/svg" xmlns:xlink="http://www.w3.org/1999/xlink" id="Layer_1" x="0px" y="0px" viewBox="0 0 255.1 255.1" style="enable-background:new 0 0 255.1 255.1;" xml:space="preserve"> <style type="text/css"> .st0{fill:#F48054;} .st1{fill:#FFFFFF;} .st2{fill:#416CB5;} </style> <g id="piment_fb_3_"> <g> <g id="XMLID_1054_"> <path id="XMLID_1072_" class="st0" d="M127.6,0c0,0-32.3,17-32.3,61.2c0,44.2,32.3,66.3,32.3,66.3s32.3-22.1,32.3-66.3 C159.9,17,127.6,0,127.6,0z"></path> <path id="XMLID_1071_" class="st1" d="M127.6,32.8c0,0-24.2,12.8-30.7,44.9c6.5,33.2,30.7,49.8,30.7,49.8s24.2-16.6,30.7-49.8 C151.8,45.6,127.6,32.8,127.6,32.8z"></path> <path id="XMLID_1070_" class="st0" d="M127.6,255.1c0,0-32.3-17-32.3-61.2c0-44.2,32.3-66.3,32.3-66.3s32.3,22.1,32.3,66.3 C159.9,238.1,127.6,255.1,127.6,255.1z"></path> <path id="XMLID_1069_" class="st1" d="M127.6,222.3c0,0-24.2-12.8-30.7-44.9c6.5-33.2,30.7-49.8,30.7-49.8s24.2,16.6,30.7,49.8 C151.8,209.5,127.6,222.3,127.6,222.3z"></path> <path id="XMLID_1068_" class="st0" d="M255.1,127.6c0,0-17-32.3-61.2-32.3c-44.2,0-66.3,32.3-66.3,32.3s22.1,32.3,66.3,32.3 C238.1,159.9,255.1,127.6,255.1,127.6z"></path> <path id="XMLID_1067_" class="st1" d="M222.3,127.6c0,0-12.8-24.2-44.9-30.7c-33.2,6.5-49.8,30.7-49.8,30.7s16.6,24.2,49.8,30.7 C209.5,151.8,222.3,127.6,222.3,127.6z"></path> <path id="XMLID_1066_" class="st0" d="M0,127.6c0,0,17-32.3,61.2-32.3s66.3,32.3,66.3,32.3s-22.1,32.3-66.3,32.3S0,127.6,0,127.6 z"></path> <path id="XMLID_1065_" class="st1" d="M32.8,127.6c0,0,12.8-24.2,44.9-30.7c33.2,6.5,49.8,30.7,49.8,30.7s-16.6,24.2-49.8,30.7 C45.6,151.8,32.8,127.6,32.8,127.6z"></path> <g id="XMLID_1062_"> <path id="XMLID_1064_" class="st0" d="M225.3,45.6c0,0-33.8-13.8-67.7,14.6c-33.9,28.4-30,67.4-30,67.4s37.7,10.5,71.6-17.9 C233,81.3,225.3,45.6,225.3,45.6z"></path> <path id="XMLID_1063_" class="st1" d="M200.1,66.7c0,0-25.4-10.4-54.2,5.4c-21.3,26.3-18.4,55.5-18.4,55.5s28.3,7.9,57.9-8.5 C205.9,93.4,200.1,66.7,200.1,66.7z"></path> </g> <path id="XMLID_1061_" class="st0" d="M29.8,209.6c0,0-7.7-35.7,26.1-64.1c33.9-28.4,71.6-17.9,71.6-17.9s3.8,39-30,67.4 C63.7,223.4,29.8,209.6,29.8,209.6z"></path> <path id="XMLID_1060_" class="st1" d="M55,188.5c0,0-5.8-26.8,14.7-52.4c29.6-16.4,57.9-8.5,57.9-8.5s2.9,29.2-18.4,55.5 C80.4,198.8,55,188.5,55,188.5z"></path> <path id="XMLID_1059_" class="st0" d="M29.8,45.6c0,0,33.8-13.8,67.7,14.6c33.9,28.4,30,67.4,30,67.4S89.9,138.1,56,109.7 C22.1,81.3,29.8,45.6,29.8,45.6z"></path> <path id="XMLID_1058_" class="st1" d="M55,66.7c0,0,25.4-10.4,54.2,5.4c21.3,26.3,18.4,55.5,18.4,55.5s-28.3,7.9-57.9-8.5 C49.2,93.4,55,66.7,55,66.7z"></path> <path id="XMLID_1057_" class="st0" d="M225.3,209.6c0,0,7.7-35.7-26.1-64.1c-33.9-28.4-71.6-17.9-71.6-17.9s-3.8,39,30,67.4 C191.5,223.4,225.3,209.6,225.3,209.6z"></path> <path id="XMLID_1056_" class="st1" d="M200.1,188.5c0,0,5.8-26.8-14.7-52.4c-29.6-16.4-57.9-8.5-57.9-8.5s-2.9,29.2,18.4,55.5 C174.8,198.8,200.1,188.5,200.1,188.5z"></path> </g> <path class="st2" d="M146.1,127.6l-4.1-13.7l-12.4,3.7l-3.7-12.5c-0.9-3.3,9.2-6.3,13.2-7.6c-0.6-2-3.5-12.4-3.5-12.4 c-21.6,3.6-26.8,12-24.6,23.1l4,13.8l-12.5,3.7l4.1,13.7l12.5-3.7l10.1,34.5l14.5-4.4l-10.1-34.4L146.1,127.6z"></path> </g> </g> </svg> 