<?xml version="1.0" encoding="UTF-8"?> <svg xmlns="http://www.w3.org/2000/svg" viewBox="0 0 170.5 170.5"><defs><style>.cls-1{fill:none;stroke:#000;stroke-miterlimit:10;stroke-width:6px;}</style></defs><title>panier</title><g id="Calque_2" data-name="Calque 2"><g id="Accueil_Desktop" data-name="Accueil Desktop"><g id="icon_panier" data-name="icon panier"><rect x="69.95" y="96.3" width="29.38" height="7.21" rx="2.03" transform="translate(184.55 15.25) rotate(90)"></rect><rect x="45.12" y="96.3" width="29.38" height="7.21" rx="2.03" transform="translate(159.71 40.09) rotate(90)"></rect><rect x="93.55" y="96.3" width="29.38" height="7.21" rx="2.03" transform="translate(208.15 -8.34) rotate(90)"></rect><path d="M140.5,70.27H125.73L97.6,42.15c-1.91-1.91-4.59-2.32-6-.91h0c-1.41,1.41-1,4.09.9,6l22.9,23H52.66l22.89-23c1.91-1.91,2.31-4.59.91-6h0c-1.41-1.41-4.1-1-6,.91L42.33,70.27H29.27a3.93,3.93,0,0,0,0,7.85h2.86l6.76,46.27a6.58,6.58,0,0,0,6.61,5.5h77.73a6.57,6.57,0,0,0,6.59-5.42l7.35-46.35h3.33a3.93,3.93,0,0,0,0-7.85ZM122.87,117.9a5.46,5.46,0,0,1-5.54,4.3H52a5.46,5.46,0,0,1-5.55-4.36L40.72,78.12H129Z"></path><circle class="cls-1" cx="85.25" cy="85.25" r="82.25"></circle></g></g></g></svg> 