<?xml version="1.0" encoding="UTF-8"?> <svg xmlns="http://www.w3.org/2000/svg" viewBox="0 0 170.5 170.5"><defs><style>.cls-1{fill:none;stroke:#000;stroke-miterlimit:10;stroke-width:6px;}</style></defs><title>phone</title><g id="Calque_2" data-name="Calque 2"><g id="Accueil_Desktop" data-name="Accueil Desktop"><path d="M108,74.41a2.16,2.16,0,0,1-.67.08,2.46,2.46,0,0,1-1.47-.52L93.64,64.49V79.58h27.25v-15l-11.77,9.34A2.39,2.39,0,0,1,108,74.41Z"></path><path d="M133.74,71.31a26.82,26.82,0,1,0-18.09,25.4c2.84,2.33,8,6.34,9.06,5.79s1-8.71.82-11.86A26.76,26.76,0,0,0,133.74,71.31Zm-8,10.63a3,3,0,0,1-3,3H91.8a3,3,0,0,1-3-3V60.42a3,3,0,0,1,3-3h30.93a3,3,0,0,1,3,3Z"></path><polygon points="116.09 62.02 98.58 62.02 107.42 68.9 116.09 62.02"></polygon><path d="M59.4,53.53c-1.24-2.11-2.63-2.38-5.35-1.19s-14,5.95-15.11,16c-.87,10.06,3.57,20,7.22,27,6.19,12.31,21.42,31.41,31,36.33,5.34,2.12,8.92,2.55,14.35,1.35,5.25-2.1,7.72-4.79,9.39-6.08,1.45-1.16,3.13-2.83.51-6.23-3-3.64-10.55-12.62-10.55-12.62s-2.18-3-5-.75c-1.27,1-4,3.23-5.82,4.49a3.65,3.65,0,0,1-4.58.09c-3-3-17.9-27.41-18.57-28.78-.53-1.9-.69-3.59,1.44-5,2.81-1.58,7.48-3.92,7.48-3.92a4.9,4.9,0,0,0,1.16-6C65.25,64.48,59.4,53.53,59.4,53.53Z"></path><circle class="cls-1" cx="85.25" cy="85.25" r="82.25"></circle></g></g></svg> 