<?xml version="1.0" encoding="UTF-8"?> <!-- Generator: Adobe Illustrator 21.0.0, SVG Export Plug-In . SVG Version: 6.00 Build 0) --> <svg xmlns="http://www.w3.org/2000/svg" xmlns:xlink="http://www.w3.org/1999/xlink" id="Layer_1" x="0px" y="0px" viewBox="0 0 193.7 255.8" style="enable-background:new 0 0 193.7 255.8;" xml:space="preserve"> <style type="text/css"> .st0{clip-path:url(#SVGID_2_);fill:#FFFFFF;} .st1{fill:#4E833E;} .st2{fill:#416CB5;} </style> <g id="piment_fb"> <g> <g> <defs> <path id="SVGID_1_" d="M152.4,217.5c4,2.4,7.6,3.3,10.6,2.7c4.2-0.9,6.8-4.6,7.5-5.6c22-60.8-7.9-124.3-8-124.6 c-10.8-20.1-21.8-17.7-25.5-17c-10.4,2.2-19.1,11.8-19.2,11.9l-6.4,7.2l-5.4-8c-6-8.9-23.2-5.9-23.1-5.9 c-0.2,0-17.1,4.4-18.9,14.9l-1.6,9.5l-8.8-3.9c-0.1-0.1-12-5.2-22.4-2.9c-3.6,0.8-14.7,3.2-16.2,25.6c0,0.7-1.1,70.9,43.9,117.2 c1.1,0.7,5,3,9.2,2.1c3-0.6,5.9-2.9,8.6-6.8l5.5-7.7l6.3,7.1c0.4,0.4,9.5,10.3,29,6.1c19.5-4.2,23.8-17,23.9-17.4l2.7-9.4 L152.4,217.5z"></path> </defs> <use xlink:href="#SVGID_1_" style="overflow:visible;fill:#FFFFFF;"></use> <clipPath id="SVGID_2_"> <use xlink:href="#SVGID_1_" style="overflow:visible;"></use> </clipPath> <rect x="-5.8" y="47" class="st0" width="205.2" height="224.8"></rect> </g> <g> <path class="st1" d="M83.7,248.4c-3.7,3.5-7.9,5.8-12.5,6.8h0c-11.6,2.5-20.8-4.3-21.8-5.1l-0.7-0.7 c-50-51-48.7-125.4-48.6-128.9c2-28.1,16.3-37,28.1-39.5c8.9-1.9,17.9-0.4,24.1,1.3c7.7-14.1,26.5-18.6,27.7-18.9 c0.9-0.2,19.9-3.8,32.7,5.9c4.9-4,12.5-9.2,21.4-11.1c11.7-2.5,28.5-0.3,42,24.8c1.4,2.8,33.1,70.2,8.5,137.2l-0.4,0.9 c-0.6,1.1-6.2,11.1-17.8,13.6c-4.6,1-9.4,0.6-14.2-1c-4.5,6.9-13.6,16.3-31.4,20.1C102.8,257.7,90.6,252.9,83.7,248.4z M152.4,217.5c4,2.4,7.6,3.3,10.6,2.7c4.2-0.9,6.8-4.6,7.5-5.6c22-60.8-7.9-124.3-8-124.6c-10.8-20.1-21.8-17.7-25.5-17 c-10.4,2.2-19.1,11.8-19.2,11.9l-6.4,7.2l-5.4-8c-6-8.9-23.2-5.9-23.1-5.9c-0.2,0-17.1,4.4-18.9,14.9l-1.6,9.5l-8.8-3.9 c-0.1-0.1-12-5.2-22.4-2.9c-3.6,0.8-14.7,3.2-16.2,25.6c0,0.7-1.1,70.9,43.9,117.2c1.1,0.7,5,3,9.2,2.1c3-0.6,5.9-2.9,8.6-6.8 l5.5-7.7l6.3,7.1c0.4,0.4,9.5,10.3,29,6.1c19.5-4.2,23.8-17,23.9-17.4l2.7-9.4L152.4,217.5z"></path> </g> <g> <path class="st1" d="M65.4,71.6c0,0-12.1-42.5,12.5-67.5c0,0,13.9-13.3,31,8.4c0,0,5.4-0.7,5.9,5.6c0,0-1.9,13.4-17.8,13.3 c0,0-4.6,0.5-3.1-4.5c0,0-4.6-5.5-7.5,1.2c0,0-7.6,20.5,5.2,38L79.5,76.3L65.4,71.6z"></path> </g> </g> <g> <path class="st2" d="M118.6,156.7l-4.1-13.7l-12.4,3.7l-3.7-12.5c-0.9-3.3,9.2-6.3,13.2-7.6c-0.6-2-3.5-12.4-3.5-12.4 c-21.6,3.6-26.8,12-24.6,23.1l4,13.8l-12.5,3.7l4.1,13.7l12.5-3.7l10.1,34.5l14.5-4.4l-10.1-34.4L118.6,156.7z"></path> </g> </g> </svg> 